<?xml version="1.0" standalone="no"?>
<!DOCTYPE svg PUBLIC "-//W3C//DTD SVG 20010904//EN"
 "http://www.w3.org/TR/2001/REC-SVG-20010904/DTD/svg10.dtd">
<svg version="1.0" xmlns="http://www.w3.org/2000/svg"
 width="1300.000000pt" height="852.000000pt" viewBox="0 0 1300.000000 852.000000"
 preserveAspectRatio="xMidYMid meet">
<metadata>
Created by potrace 1.16, written by Peter Selinger 2001-2019
</metadata>
<g transform="translate(0.000000,852.000000) scale(0.100000,-0.100000)"
fill="#000000" stroke="none">
<path d="M4190 6884 c-436 -96 -424 -93 -450 -119 -37 -36 -47 -49 -55 -74
-11 -36 -8 -90 5 -107 11 -13 15 -13 30 1 14 12 20 13 26 4 4 -7 3 -10 -3 -6
-6 4 -18 -2 -27 -12 -19 -21 -17 -24 37 -68 41 -33 103 -33 238 0 l57 14 11
-37 c19 -63 15 -87 -16 -95 -109 -26 -421 -160 -502 -214 -14 -10 -66 -44
-116 -76 -49 -32 -112 -76 -140 -99 -27 -23 -63 -52 -80 -66 -52 -43 -261
-254 -280 -283 l-18 -28 144 -147 144 -147 -148 145 c-146 142 -149 145 -164
123 -8 -12 -25 -34 -37 -48 -22 -26 -24 -26 -53 -12 -44 23 -58 44 -43 62 7 8
9 15 5 15 -3 0 3 12 14 26 22 28 28 88 11 99 -6 4 -8 10 -5 14 6 10 -30 43
-53 49 -47 12 -83 5 -112 -23 -17 -16 -30 -34 -30 -41 0 -7 -3 -14 -7 -16 -5
-1 -22 -25 -39 -53 -17 -27 -61 -99 -99 -158 -58 -94 -67 -113 -62 -143 8 -45
58 -88 109 -92 33 -3 44 2 71 30 18 18 41 44 50 57 l16 25 36 -20 c20 -10 39
-22 41 -26 3 -4 -14 -43 -37 -87 -23 -46 -38 -85 -33 -92 4 -7 3 -10 -3 -6
-13 8 -77 -141 -127 -293 -148 -453 -137 -1001 30 -1465 83 -231 231 -493 385
-682 151 -184 392 -393 597 -517 129 -78 333 -175 412 -196 25 -7 50 -16 55
-20 14 -11 108 -36 265 -69 556 -119 1165 -15 1658 284 113 68 258 174 255
186 -2 5 2 8 8 6 20 -4 223 194 334 326 50 60 155 209 188 267 8 14 30 52 48
85 45 79 130 271 162 365 98 293 122 479 113 850 -6 262 -8 274 -51 445 -14
55 -30 116 -34 135 -24 101 -187 446 -249 528 -13 17 -20 32 -16 32 5 0 0 8
-12 18 -11 9 -33 35 -49 57 -15 22 -42 55 -58 73 -17 17 -27 32 -23 32 11 0
-82 108 -174 200 -87 89 -205 192 -211 185 -3 -2 -43 35 -90 83 -46 48 -60 64
-31 37 55 -53 54 -53 83 -2 13 23 28 22 71 -8 101 -69 222 17 174 124 -14 28
-46 56 -158 131 -241 163 -255 168 -312 131 -65 -43 -75 -114 -23 -165 17 -18
43 -40 56 -49 l24 -16 -27 -41 c-14 -22 -28 -40 -30 -40 -2 0 -46 22 -98 50
-218 114 -455 193 -713 236 -102 17 -437 25 -610 14 l-79 -5 -12 53 c-7 28 -9
54 -5 57 4 2 49 13 101 24 107 24 153 52 181 115 24 53 24 79 -2 131 -29 57
-89 95 -149 94 -25 -1 -155 -26 -290 -55z m767 -870 c167 -24 326 -69 488
-137 251 -105 531 -319 703 -535 22 -28 42 -49 46 -46 3 2 4 1 1 -3 -3 -3 6
-20 19 -37 70 -93 186 -310 230 -434 38 -106 72 -233 92 -342 23 -120 26 -476
6 -590 -75 -419 -255 -765 -544 -1046 -57 -55 -115 -108 -130 -118 -16 -10
-25 -23 -21 -30 3 -6 3 -8 -1 -4 -4 3 -50 -22 -101 -57 -311 -213 -669 -320
-1060 -318 -209 1 -379 28 -563 89 -128 42 -339 144 -442 213 -41 28 -81 49
-88 46 -7 -3 -10 -1 -7 4 3 5 -27 36 -67 69 -277 228 -476 522 -588 867 -168
520 -94 1099 202 1569 28 45 70 104 92 131 22 28 45 56 51 63 5 7 46 52 90 98
268 283 646 479 1050 544 144 23 398 25 542 4z"/>
<path d="M4313 5810 c-39 -24 -53 -48 -53 -95 0 -82 53 -145 122 -145 32 0 47
7 75 35 34 34 35 37 31 97 -4 55 -8 64 -41 94 -43 40 -85 44 -134 14z"/>
<path d="M5497 5590 c-109 -86 -77 -233 50 -233 36 0 50 5 74 30 39 39 59 97
48 137 -21 75 -115 111 -172 66z"/>
<path d="M3340 5138 c-38 -14 -59 -38 -70 -79 -15 -53 7 -100 59 -133 90 -57
183 -11 190 93 1 29 -6 41 -45 78 -30 29 -53 43 -67 41 -12 -1 -26 0 -32 4 -5
3 -21 1 -35 -4z"/>
<path d="M5065 5083 c-209 -44 -286 -80 -392 -184 -179 -176 -220 -487 -114
-864 88 -313 225 -491 430 -556 91 -30 262 -29 376 0 133 35 238 92 314 169
99 101 144 206 163 378 22 190 -32 481 -128 694 -23 52 -29 59 -43 48 -14 -12
-14 -11 -2 4 11 15 7 25 -33 82 -114 160 -266 237 -462 235 -49 -1 -98 -3
-109 -6z m113 -309 c49 -20 96 -67 133 -131 97 -169 166 -558 129 -721 -24
-101 -103 -162 -211 -162 -128 0 -214 115 -284 385 -52 197 -65 389 -34 498
30 108 164 174 267 131z"/>
<path d="M3867 4812 c-41 -19 -399 -358 -429 -407 -57 -94 17 -225 129 -225
63 0 92 15 165 87 46 46 69 62 72 52 3 -8 16 -70 31 -139 49 -240 146 -695
161 -762 13 -55 23 -75 56 -107 39 -40 87 -61 139 -61 45 0 122 46 152 92 43
67 42 77 -77 628 -14 63 -30 140 -36 170 -6 30 -29 138 -51 240 -22 102 -47
217 -55 256 -20 95 -55 148 -115 174 -58 24 -92 25 -142 2z"/>
<path d="M6185 4605 c-103 -37 -116 -163 -22 -212 68 -35 180 13 193 83 18 94
-75 164 -171 129z"/>
<path d="M3158 3960 c-113 -20 -151 -134 -67 -205 36 -29 80 -32 138 -9 64 25
92 88 68 147 -23 54 -73 78 -139 67z"/>
<path d="M5942 3430 c-81 -50 -79 -147 6 -201 39 -25 54 -30 91 -26 58 6 92
40 98 98 5 57 -19 97 -79 127 -55 27 -74 28 -116 2z"/>
<path d="M3797 2970 c-88 -69 -86 -188 3 -224 73 -29 150 20 170 107 21 97
-97 177 -173 117z"/>
<path d="M4985 2771 c-81 -36 -100 -156 -34 -218 50 -48 110 -49 160 -2 30 28
31 32 27 94 -3 57 -8 70 -33 95 -32 31 -87 45 -120 31z"/>
<path d="M8744 6347 c-25 -14 -34 -28 -30 -47 2 -8 7 -31 10 -51 l6 -36 -49
-7 c-54 -7 -60 -12 -66 -54 -2 -15 -2 -21 1 -14 3 6 10 9 16 6 7 -5 9 2 4 19
-5 23 -3 25 20 22 15 -1 30 -8 34 -15 4 -7 13 -9 19 -6 6 4 14 0 17 -8 3 -9
12 -16 20 -16 8 0 11 -7 8 -17 -5 -14 -4 -15 4 -4 8 12 14 12 41 0 30 -13 41
-29 21 -29 -5 0 -10 -5 -10 -11 0 -5 5 -7 10 -4 6 3 10 1 10 -4 0 -6 -17 -11
-37 -10 -36 0 -37 1 -13 11 l25 11 -25 6 c-27 8 -35 -1 -26 -24 3 -9 18 -15
36 -15 23 0 30 -4 30 -19 0 -11 -8 -22 -17 -24 -15 -4 -16 -5 -2 -6 9 0 26 7
38 17 18 15 19 22 11 60 -6 24 -8 47 -5 52 3 4 24 11 48 15 44 8 77 29 77 52
0 7 -8 13 -17 13 -13 0 -15 2 -5 8 24 16 -31 31 -74 21 -22 -4 -42 -9 -45 -9
-4 0 -9 22 -13 49 -8 57 -38 87 -72 68z"/>
<path d="M7409 5838 c-19 -19 -47 -60 -62 -92 -33 -66 -39 -65 -86 19 -41 72
-67 95 -108 95 -38 0 -66 -25 -98 -87 -10 -21 -27 -50 -37 -65 -16 -23 -17
-30 -6 -48 7 -11 21 -20 30 -20 18 0 70 68 82 107 17 52 31 46 80 -36 49 -83
59 -91 109 -91 43 1 55 12 105 98 24 40 47 70 52 67 5 -3 23 -31 41 -63 48
-85 66 -102 111 -102 46 0 63 16 113 104 20 36 38 66 40 66 2 0 20 -28 41 -62
55 -93 71 -108 116 -108 47 0 68 21 117 113 37 70 36 97 -2 97 -27 0 -47 -19
-72 -70 -39 -78 -43 -78 -91 5 -47 79 -65 95 -111 95 -37 0 -64 -26 -105 -100
-18 -33 -38 -60 -45 -60 -7 0 -28 29 -47 63 -42 75 -62 95 -103 103 -25 5 -36
1 -64 -28z"/>
<path d="M9510 5420 c0 -17 -7 -20 -47 -21 -45 -1 -46 -1 -18 -10 17 -5 58
-10 92 -11 33 -2 59 -6 56 -10 -2 -5 1 -8 7 -8 7 0 10 -6 7 -14 -3 -8 -1 -17
6 -20 7 -2 -25 -5 -70 -5 -67 -1 -83 -4 -83 -16 0 -8 -5 -15 -12 -15 -8 0 -9
-3 -2 -10 11 -11 56 -1 48 11 -3 5 2 6 11 3 14 -6 13 -8 -5 -21 -19 -14 -78
-12 -103 4 -6 3 -7 1 -3 -5 4 -7 3 -12 -3 -12 -5 0 -14 6 -18 13 -13 22 -41
27 -68 13 l-26 -14 33 -6 c47 -8 50 -10 82 -31 38 -25 59 -75 46 -110 -6 -15
-8 -30 -6 -33 7 -12 -93 -13 -114 -2 -13 7 -20 7 -20 1 0 -6 -10 -6 -29 0 -17
6 -40 9 -53 6 -21 -4 -21 -4 4 -6 15 0 29 -5 32 -9 8 -13 -57 0 -71 14 -23 23
-15 41 18 42 17 0 33 3 36 6 3 3 -14 5 -36 4 -63 -1 -93 -45 -56 -81 16 -17
111 -40 126 -31 5 3 9 0 9 -5 0 -6 11 -11 24 -11 13 0 36 -6 52 -14 15 -8 39
-12 54 -10 17 4 31 0 39 -10 9 -11 10 -16 2 -16 -6 0 -11 5 -11 10 0 6 -9 10
-19 10 -17 0 -15 -4 10 -31 94 -101 46 -268 -91 -312 -59 -19 -182 -22 -245
-6 -22 5 -49 12 -59 14 -24 6 -76 54 -76 72 0 7 -4 13 -10 13 -14 0 -13 37 2
42 6 2 12 15 13 29 2 23 5 24 54 21 37 -3 67 -13 102 -34 42 -26 55 -30 99
-26 35 4 57 12 71 27 20 21 20 22 2 39 -11 9 -12 13 -3 8 13 -9 13 -8 0 7 -15
17 -91 36 -123 31 -9 -1 -14 2 -11 8 3 5 -2 9 -12 7 -11 -1 -28 2 -39 6 -11 4
-35 14 -54 21 -18 8 -38 11 -44 7 -6 -4 -8 0 -5 8 3 8 -3 25 -13 38 -17 20
-20 21 -34 8 -13 -13 -13 -17 2 -29 10 -7 14 -8 10 -1 -4 6 -3 14 3 18 5 3 11
-2 11 -12 1 -10 3 -28 4 -40 1 -13 -2 -23 -6 -23 -5 0 -9 5 -9 11 0 5 -4 8 -9
4 -5 -3 -12 -1 -16 4 -3 6 -12 8 -19 5 -8 -3 -24 8 -37 25 -25 34 -44 39 -53
16 -3 -8 -12 -15 -20 -15 -21 0 -29 -30 -8 -30 23 -1 58 -28 47 -37 -4 -5 -10
-2 -12 5 -3 6 -10 12 -17 12 -9 0 -15 -22 -20 -61 -8 -78 -8 -114 0 -106 4 3
13 -1 21 -9 21 -20 10 -29 -15 -13 -18 11 -21 25 -24 114 -4 95 -2 103 24 148
15 27 28 55 28 63 0 8 5 12 10 9 6 -3 10 2 11 12 0 16 1 16 10 -2 7 -16 8 -12
5 15 -3 19 -2 29 1 23 9 -23 21 -14 28 20 9 39 22 57 38 52 14 -6 23 0 61 42
26 29 27 32 8 30 -11 0 -18 -5 -16 -9 8 -13 -24 -40 -37 -32 -7 4 -20 -4 -31
-17 -17 -22 -18 -22 -9 -2 6 12 8 30 5 40 -5 15 -4 15 5 3 8 -11 11 -11 11 -2
0 7 -7 15 -15 18 -10 4 -13 13 -10 24 5 14 0 18 -20 16 -26 -1 -32 -10 -14
-21 5 -4 14 -18 19 -31 11 -29 5 -45 -70 -174 -80 -138 -79 -135 -82 -257 -3
-106 -4 -114 -29 -139 -24 -23 -32 -25 -69 -19 -35 6 -44 12 -56 41 -8 18 -15
50 -15 71 l-2 38 -7 -40 c-4 -22 -8 -34 -9 -27 0 6 -8 12 -16 12 -8 0 -15 5
-15 11 0 8 -4 9 -13 0 -18 -15 -27 -4 -27 33 0 18 -7 42 -16 54 -9 13 -13 30
-10 39 5 11 2 14 -10 9 -13 -5 -16 -1 -12 24 3 16 1 30 -3 30 -4 0 -13 17 -20
38 -6 20 -16 42 -21 49 -5 7 -7 17 -4 22 4 5 2 12 -3 15 -5 4 -19 38 -32 78
-21 70 -71 138 -101 138 -7 0 2 -12 20 -27 27 -24 44 -62 117 -272 47 -134 85
-254 85 -267 0 -25 -31 -60 -63 -70 -16 -5 -17 -8 -6 -15 11 -7 11 -9 1 -9 -7
0 -20 7 -28 15 -18 17 -24 18 -44 5 -8 -5 -11 -12 -7 -17 5 -4 12 -1 17 7 5 8
12 11 16 7 4 -3 1 -14 -7 -24 -8 -9 -9 -14 -2 -10 7 4 13 0 16 -10 2 -10 3 -8
2 5 -2 18 1 22 14 17 21 -9 91 -16 91 -9 0 2 -10 8 -22 13 l-22 8 22 5 c12 4
20 2 16 -3 -3 -5 0 -9 6 -9 6 0 8 -10 4 -25 l-6 -25 101 0 c61 0 101 -4 101
-10 0 -6 -40 -10 -100 -10 -60 0 -100 -4 -100 -10 0 -6 -33 -10 -80 -10 -77 0
-86 -3 -81 -32 0 -5 -5 -8 -12 -8 -8 0 -7 -4 3 -10 9 -6 255 -10 645 -10 665
0 671 1 772 47 24 11 40 23 36 27 -4 4 0 4 9 1 12 -5 38 15 91 67 80 79 126
159 146 256 14 67 15 165 1 157 -5 -3 -7 0 -4 8 7 20 -14 98 -33 119 -8 9 -12
21 -9 26 7 12 -23 54 -35 47 -5 -4 -9 2 -9 12 0 23 -65 97 -79 89 -12 -8 -10
-46 3 -46 6 0 3 -7 -6 -17 -13 -12 -20 -14 -30 -5 -19 15 -66 -16 -62 -41 2
-14 -1 -15 -10 -8 -17 14 -29 2 -15 -15 6 -8 6 -14 0 -18 -5 -4 -12 -2 -15 3
-4 5 -20 -2 -36 -17 -29 -27 -37 -42 -22 -42 4 0 7 5 7 10 0 6 4 10 10 10 5 0
9 -10 9 -22 0 -16 -5 -22 -17 -20 -9 2 -17 -3 -17 -10 0 -10 -3 -9 -9 2 -6 8
-7 19 -4 25 3 5 -5 -1 -19 -15 -17 -18 -21 -28 -14 -35 8 -7 3 -18 -16 -37
-16 -15 -28 -23 -28 -17 0 5 0 12 0 17 0 4 5 7 10 7 9 0 11 3 10 23 -1 4 -16
-11 -35 -33 -18 -22 -37 -36 -41 -32 -4 4 2 18 14 30 12 13 19 27 15 31 -11
11 26 36 43 29 8 -3 14 1 14 11 0 8 9 20 21 26 17 10 18 14 7 28 -8 10 -9 13
-1 9 6 -4 14 -3 18 3 4 6 10 8 14 6 14 -9 61 43 54 61 -5 12 -2 15 10 10 20
-7 46 16 59 55 6 16 15 27 22 26 6 -1 21 4 33 12 l21 14 -21 15 c-71 52 -181
91 -259 91 -41 0 -48 -3 -48 -20z"/>
<path d="M8305 4089 c-93 -32 -136 -67 -192 -153 -43 -66 -57 -130 -57 -251 1
-86 6 -123 22 -169 57 -156 191 -246 366 -246 173 0 291 68 357 205 53 110 62
221 29 351 -32 126 -98 207 -207 255 -73 33 -237 37 -318 8z m233 -166 c63
-46 92 -126 92 -248 0 -206 -155 -314 -288 -200 -52 44 -67 91 -67 215 0 104
3 120 25 165 33 65 92 98 163 92 27 -2 61 -13 75 -24z"/>
<path d="M9450 4083 c-83 -34 -120 -62 -164 -126 -93 -136 -108 -334 -38 -490
38 -83 78 -127 149 -163 53 -27 67 -29 163 -29 116 0 142 9 198 66 28 29 32
30 32 12 0 -11 9 -32 21 -47 16 -21 29 -26 62 -26 80 0 87 18 87 224 0 104 -4
174 -12 191 -16 36 -71 48 -204 43 -129 -4 -154 -16 -154 -75 0 -55 27 -73
111 -73 l72 0 -6 -35 c-13 -77 -76 -125 -165 -125 -121 0 -193 119 -179 298 6
85 41 165 84 196 28 21 114 33 157 22 13 -3 45 -27 70 -53 41 -44 49 -48 92
-48 59 0 84 27 84 92 0 40 -5 51 -43 88 -85 85 -282 113 -417 58z"/>
<path d="M10341 4094 c-143 -52 -229 -164 -253 -332 -30 -206 63 -402 220
-463 86 -33 220 -38 309 -10 164 51 247 170 260 372 13 199 -67 351 -222 420
-67 30 -247 37 -314 13z m182 -153 c84 -20 128 -94 135 -227 6 -121 -14 -191
-71 -239 -68 -58 -147 -57 -218 3 -43 36 -73 143 -66 235 7 94 22 140 57 181
42 48 94 63 163 47z"/>
<path d="M7381 4075 c-37 -32 -42 -79 -12 -116 17 -22 29 -25 117 -29 l98 -5
0 -290 c1 -311 3 -321 53 -344 45 -20 92 -13 124 18 l29 29 0 295 0 295 95 4
c82 3 97 6 117 25 30 30 30 86 0 116 -22 22 -28 22 -306 25 l-283 3 -32 -26z"/>
<path d="M9578 2713 c-10 -2 -19 -9 -19 -14 -1 -5 -2 -13 -3 -17 0 -5 -9 -16
-18 -26 -10 -10 -18 -23 -17 -29 0 -8 2 -8 6 1 4 10 8 8 18 -5 8 -10 17 -14
22 -9 4 5 2 11 -4 13 -7 3 -13 9 -13 14 0 4 7 6 15 3 8 -4 17 1 21 10 11 28
28 17 58 -37 61 -108 108 -105 167 11 17 33 16 69 -1 42 -5 -9 -9 -9 -14 -1
-4 6 -3 11 3 11 5 0 16 6 23 13 8 9 21 11 33 6 19 -7 19 -8 -2 -8 -21 -1 -34
-21 -14 -21 6 0 20 -18 32 -40 12 -21 25 -37 29 -35 4 3 7 -2 6 -11 0 -9 11
-25 25 -36 26 -19 28 -19 53 -2 27 17 86 108 86 132 0 20 -28 26 -45 9 -8 -9
-15 -19 -15 -22 0 -4 -10 -21 -22 -38 -13 -18 -16 -27 -7 -22 11 6 11 5 3 -5
-14 -14 -51 -5 -51 13 0 15 -50 97 -61 98 -4 0 -16 2 -27 4 -24 5 -66 -32 -58
-51 3 -8 0 -14 -6 -14 -15 0 -14 -27 1 -32 7 -3 8 -9 3 -18 -6 -10 -10 -8 -17
11 -9 23 -10 23 -20 5 -8 -14 -7 -21 3 -28 10 -6 6 -7 -11 -2 -14 4 -27 11
-28 15 -2 5 -9 6 -15 2 -6 -4 -8 0 -4 10 4 12 1 17 -9 17 -9 0 -14 6 -11 13 7
19 -41 77 -61 76 -9 -1 -25 -3 -34 -6z"/>
<path d="M6930 2388 c0 -3 9 -27 20 -53 24 -57 25 -64 3 -59 -10 2 -38 -2 -63
-10 -25 -8 -37 -15 -27 -15 27 -1 20 -18 -10 -27 -21 -5 -24 -8 -10 -11 11 -3
17 -14 17 -34 0 -16 5 -29 10 -29 21 0 9 -30 -12 -31 -13 0 -17 -3 -10 -6 10
-4 10 -8 0 -21 -14 -16 -13 -16 35 3 7 3 21 -2 32 -11 11 -8 14 -12 6 -8 -11
5 -13 3 -8 -10 4 -10 7 -20 7 -22 0 -3 4 -3 8 0 5 3 9 -1 9 -9 0 -8 -4 -12 -9
-9 -4 3 -3 -6 3 -20 7 -14 16 -23 20 -20 5 3 6 -2 3 -10 -4 -10 4 -16 25 -21
43 -9 67 1 81 35 10 24 9 38 -4 76 -17 50 -21 95 -8 93 4 -1 15 -1 26 0 16 1
17 3 5 19 -11 14 -11 15 1 5 17 -15 44 -17 35 -3 -3 5 0 7 9 4 20 -8 56 31 56
59 0 37 -23 59 -63 62 -20 2 -37 0 -37 -5 0 -4 -8 -6 -19 -3 -10 3 -22 0 -25
-6 -13 -21 -52 -12 -64 14 -7 14 -12 32 -12 39 0 12 -29 56 -30 44z"/>
</g>
</svg>
