<?xml version="1.0" standalone="no"?>
<!DOCTYPE svg PUBLIC "-//W3C//DTD SVG 20010904//EN"
 "http://www.w3.org/TR/2001/REC-SVG-20010904/DTD/svg10.dtd">
<svg version="1.0" xmlns="http://www.w3.org/2000/svg"
 width="512.000000pt" height="512.000000pt" viewBox="0 0 512.000000 512.000000"
 preserveAspectRatio="xMidYMid meet">
<metadata>
Created by potrace 1.16, written by Peter Selinger 2001-2019
</metadata>
<g transform="translate(0.000000,512.000000) scale(0.100000,-0.100000)"
fill="#000000" stroke="none">
<path d="M883 4538 c-397 -397 -584 -591 -588 -609 -3 -15 0 -42 8 -60 9 -21
386 -405 978 -996 845 -843 968 -963 1000 -968 22 -4 46 -2 60 5 13 7 254 241
534 520 l510 508 95 6 c145 9 262 48 377 127 63 43 166 142 210 202 l35 47
482 0 482 0 27 28 27 28 0 676 0 675 -25 25 c-14 14 -39 28 -56 32 -54 10
-601 7 -642 -5 -51 -14 -77 -57 -77 -126 l0 -52 -159 -3 c-152 -3 -161 -4
-185 -27 -14 -13 -27 -40 -31 -61 -6 -38 -7 -38 -43 -33 -81 11 -173 46 -287
109 -570 316 -739 384 -962 384 -114 0 -205 -23 -473 -120 l-253 -91 -182 181
-182 180 -49 0 -49 0 -582 -582z m837 114 c0 -12 -71 -39 -142 -54 -70 -14
-176 0 -240 33 l-41 21 109 109 109 110 103 -105 c56 -57 102 -109 102 -114z
m1125 80 c85 -27 359 -161 570 -279 240 -133 305 -160 425 -178 25 -3 57 -8
73 -11 l27 -6 0 -401 -1 -402 -49 -62 c-98 -123 -233 -212 -354 -234 -112 -20
-284 14 -395 79 -25 14 -80 61 -121 104 l-76 77 -410 139 c-225 76 -422 146
-439 155 -38 20 -88 72 -110 116 -26 52 -17 131 21 179 34 42 105 82 146 82
15 0 235 -66 490 -146 274 -87 479 -147 502 -147 93 0 131 135 52 186 -12 8
-181 64 -376 126 l-355 112 -187 187 -187 186 177 64 c268 98 289 103 412 98
64 -3 128 -12 165 -24z m2075 -677 l0 -525 -195 0 -195 0 0 525 0 525 195 0
195 0 0 -525z m-3627 365 c167 -59 341 -47 505 32 l84 41 98 -98 99 -99 -65
-25 c-79 -32 -140 -79 -188 -147 -28 -40 -43 -53 -70 -58 -20 -4 -70 -24 -113
-46 -278 -139 -390 -479 -251 -766 45 -94 159 -209 248 -252 225 -109 480 -74
655 89 72 68 114 129 145 210 l22 57 161 -54 162 -54 -4 -98 c-4 -131 12 -212
64 -318 l44 -89 -110 -110 c-104 -105 -110 -109 -131 -96 -164 103 -372 128
-551 67 -42 -14 -95 -37 -117 -51 -22 -14 -43 -25 -47 -25 -5 0 -235 227 -512
504 l-504 504 21 30 c55 76 93 210 94 328 1 114 -19 202 -68 297 l-41 82 110
111 109 112 47 -29 c25 -16 72 -38 104 -49z m3027 -460 l0 -430 -85 0 -85 0 0
430 0 430 85 0 85 0 0 -430z m-3521 90 c34 -97 30 -217 -11 -313 l-21 -49
-109 109 -108 108 107 107 c117 117 115 116 142 38z m975 -262 c28 -96 110
-199 200 -252 24 -14 98 -44 165 -67 137 -47 132 -40 83 -132 -33 -62 -99
-122 -170 -155 -49 -23 -70 -27 -147 -27 -82 0 -97 3 -157 33 -185 91 -256
308 -163 492 31 59 134 158 167 160 4 0 13 -24 22 -52z m684 -1388 c28 -12 52
-25 52 -29 0 -3 -47 -53 -105 -111 l-105 -105 -105 105 c-58 58 -105 108 -105
111 0 7 87 43 125 53 49 12 191 -2 243 -24z"/>
<path d="M3438 3874 c-35 -19 -48 -43 -48 -91 0 -47 19 -76 59 -93 73 -30 146
19 146 97 0 38 -5 49 -33 74 -36 33 -80 37 -124 13z"/>
<path d="M1580 2019 c-176 -18 -369 -132 -503 -297 l-59 -71 -485 -3 -485 -3
-24 -28 -24 -28 0 -672 c0 -734 -3 -701 58 -726 20 -8 121 -11 355 -9 l327 3
27 27 c23 23 28 38 31 93 l4 65 158 0 c156 0 157 0 183 26 15 14 29 42 33 61
l7 35 55 -6 c78 -9 164 -46 347 -149 219 -124 544 -281 635 -307 55 -16 112
-23 215 -27 126 -4 149 -2 230 20 50 13 450 154 890 312 600 216 815 297 862
327 198 125 268 336 175 531 -44 92 -91 141 -180 184 -74 37 -79 38 -182 37
-102 0 -115 -3 -487 -107 -211 -59 -387 -107 -392 -107 -5 0 -19 21 -32 48
-31 63 -131 162 -199 195 -30 15 -228 85 -438 157 l-384 130 -59 60 c-164 167
-415 254 -659 229z m233 -226 c122 -30 250 -109 312 -192 17 -22 46 -47 65
-55 19 -9 206 -74 415 -144 209 -71 398 -138 421 -150 115 -59 157 -191 91
-291 -30 -45 -97 -81 -151 -81 -20 0 -243 65 -495 145 -252 80 -470 145 -485
145 -97 0 -142 -125 -66 -182 14 -10 232 -84 485 -164 508 -162 557 -172 667
-140 120 35 221 128 264 243 10 27 18 49 19 51 6 9 810 224 856 229 112 11
198 -59 207 -171 7 -82 -46 -164 -136 -210 -35 -18 -1609 -583 -1677 -602 -73
-20 -217 -18 -306 5 -95 25 -317 131 -592 283 -234 130 -339 172 -455 184
l-72 7 0 402 0 402 32 44 c58 82 155 165 241 208 120 60 219 69 360 34z
m-1223 -878 l0 -525 -195 0 -195 0 0 525 0 525 195 0 195 0 0 -525z m380 95
l0 -430 -85 0 -85 0 0 430 0 430 85 0 85 0 0 -430z"/>
<path d="M1567 1269 c-28 -17 -49 -68 -43 -104 16 -83 117 -115 177 -56 39 39
40 96 3 140 -22 27 -32 31 -72 31 -26 0 -55 -5 -65 -11z"/>
</g>
</svg>
