<?xml version="1.0" standalone="no"?>
<!DOCTYPE svg PUBLIC "-//W3C//DTD SVG 20010904//EN"
 "http://www.w3.org/TR/2001/REC-SVG-20010904/DTD/svg10.dtd">
<svg version="1.0" xmlns="http://www.w3.org/2000/svg"
 width="656.000000pt" height="360.000000pt" viewBox="0 0 656.000000 360.000000"
 preserveAspectRatio="xMidYMid meet">
<metadata>
Created by potrace 1.16, written by Peter Selinger 2001-2019
</metadata>
<g transform="translate(0.000000,360.000000) scale(0.100000,-0.100000)"
fill="#000000" stroke="none">
<path d="M683 3060 c-17 -10 -37 -28 -43 -40 -12 -22 -160 -1145 -160 -1210 0
-40 28 -88 62 -106 18 -10 133 -13 511 -14 l487 0 0 -28 c0 -15 -9 -93 -20
-172 -10 -80 -40 -306 -65 -502 -42 -330 -45 -359 -31 -392 8 -20 30 -45 48
-56 33 -20 44 -20 2217 -20 l2185 0 33 23 c18 12 37 33 43 47 9 24 49 309 107
767 26 211 27 223 11 257 -32 67 -47 71 -285 74 -154 3 -213 7 -213 15 0 7 5
41 10 77 48 338 150 1181 145 1206 -3 20 -20 45 -41 63 l-35 31 -2467 0
c-2425 0 -2468 0 -2499 -20z m842 -307 c-4 -38 -9 -71 -12 -75 -2 -5 -96 -8
-209 -8 -112 0 -204 -1 -204 -2 -15 -105 -25 -199 -22 -203 3 -3 66 -5 139 -5
l135 0 -8 -67 c-3 -38 -12 -71 -18 -75 -6 -4 -71 -8 -143 -8 -100 0 -133 -3
-133 -12 0 -7 -9 -87 -20 -178 -11 -91 -20 -166 -20 -167 0 -7 -170 -2 -170 5
0 17 101 838 105 850 3 9 72 12 295 12 l292 0 -7 -67z m571 45 c46 -25 92 -82
105 -130 15 -56 5 -150 -22 -204 -23 -49 -88 -111 -130 -126 -16 -5 -29 -14
-29 -18 0 -4 27 -87 60 -183 33 -97 60 -178 60 -182 0 -3 -39 -4 -87 -3 l-87
3 -56 175 -56 175 -62 3 c-45 2 -62 -1 -63 -10 0 -7 -10 -87 -22 -178 l-22
-165 -82 -3 -83 -3 0 31 c0 28 82 719 96 803 l6 39 222 -4 c184 -3 226 -6 252
-20z m847 -23 c-1 -22 -5 -55 -8 -72 l-6 -33 -207 -2 -207 -3 -12 -95 c-6 -52
-9 -98 -7 -102 3 -4 60 -7 127 -7 67 0 128 0 135 -1 9 0 11 -15 6 -57 -11 -96
-5 -93 -158 -93 l-134 0 -11 -75 c-6 -42 -11 -89 -11 -105 l0 -30 203 -2 202
-3 -3 -50 c-1 -27 -5 -60 -7 -72 l-5 -23 -290 0 -290 0 0 23 c0 37 100 829
106 838 3 5 128 8 292 7 l287 -3 -2 -40z m710 25 c-1 -8 -4 -41 -8 -72 l-6
-58 -208 0 -208 0 -12 -88 c-6 -49 -11 -96 -11 -105 0 -15 15 -17 136 -17
l137 0 -5 -64 c-3 -35 -9 -69 -12 -75 -5 -7 -54 -11 -141 -11 -151 0 -139 8
-150 -95 -3 -33 -8 -72 -11 -87 l-5 -28 208 -2 208 -3 -3 -40 c-1 -22 -5 -55
-8 -73 l-5 -32 -292 2 -292 3 3 35 c5 51 91 759 98 798 l5 32 292 -2 c253 -3
292 -5 290 -18z m1275 4 c15 -11 22 -25 22 -50 l0 -34 70 0 c128 0 168 -33
235 -195 44 -110 45 -110 45 -233 0 -124 -12 -179 -41 -198 -8 -5 -31 -11 -52
-14 -34 -4 -41 -10 -52 -43 -17 -49 -30 -64 -78 -89 -79 -40 -182 6 -208 93
l-12 39 -189 0 c-166 0 -188 -2 -188 -16 0 -9 -10 -34 -22 -55 -23 -41 -84
-79 -126 -79 -62 0 -137 60 -148 117 l-6 32 -75 3 c-59 2 -78 7 -87 21 -8 12
-8 22 0 35 9 13 28 18 95 20 78 3 86 5 112 32 59 60 155 60 212 0 l29 -30 209
0 209 0 19 24 c11 14 40 32 64 42 56 21 107 9 159 -36 19 -17 45 -30 60 -30
l26 0 0 100 0 100 -129 0 c-135 0 -185 10 -201 40 -6 10 -10 91 -10 179 l0
161 -397 2 -398 3 -3 23 c-8 52 -11 52 427 52 352 0 410 -2 429 -16z m-714
-170 c18 -18 20 -32 6 -54 -14 -23 -262 -28 -296 -6 -28 19 -31 38 -8 60 23
23 275 23 298 0z m-10 -166 c8 -13 8 -23 0 -35 -10 -16 -31 -18 -155 -21 -127
-2 -145 -1 -156 15 -17 22 -16 28 3 48 13 13 39 15 156 13 121 -3 142 -5 152
-20z m-20 -160 c8 -13 8 -23 0 -35 -10 -15 -30 -18 -140 -21 -154 -3 -174 0
-174 31 0 44 15 48 164 45 119 -3 140 -5 150 -20z m-2053 -869 c86 -29 132
-93 127 -177 l-3 -47 -62 -3 -63 -3 0 31 c0 21 -9 41 -29 61 -59 59 -183 28
-183 -46 0 -39 29 -61 147 -109 106 -44 152 -83 165 -141 11 -47 -8 -123 -42
-167 -51 -67 -172 -102 -291 -84 -52 8 -118 48 -140 85 -20 34 -31 94 -23 126
6 23 10 25 71 25 l65 0 0 -33 c0 -47 36 -79 98 -85 61 -5 106 16 120 58 16 44
-13 71 -125 119 -152 65 -183 97 -183 191 0 89 56 163 147 196 47 16 158 18
204 3z m385 -3 c3 -7 -2 -67 -10 -132 -9 -65 -16 -122 -16 -126 0 -4 50 -8
110 -8 61 0 110 3 110 6 0 23 32 259 36 266 6 10 121 11 127 1 7 -11 -72 -655
-82 -673 -9 -16 -99 -24 -121 -10 -9 6 -9 34 4 132 9 68 16 129 16 136 0 9
-30 12 -108 12 l-109 0 -17 -137 c-9 -75 -19 -139 -22 -142 -6 -7 -121 -8
-127 -1 -8 8 75 664 86 678 13 17 116 16 123 -2z m604 -13 c0 -46 -77 -654
-84 -660 -3 -3 -31 -8 -61 -10 -45 -3 -57 -1 -62 13 -7 19 64 628 78 662 8 19
16 22 69 22 59 0 60 -1 60 -27z m463 16 c122 -34 161 -205 74 -322 -50 -65
-109 -89 -232 -95 l-103 -5 -12 -101 c-19 -166 -17 -161 -82 -162 -31 -1 -60
1 -66 5 -6 4 57 572 78 689 1 7 311 0 343 -9z m614 -21 c22 -14 48 -43 58 -65
38 -80 14 -204 -51 -265 -48 -44 -100 -61 -211 -66 -57 -2 -103 -8 -103 -11 0
-52 -33 -247 -42 -253 -11 -8 -116 -4 -123 4 -2 2 54 454 85 686 0 2 78 2 173
0 168 -3 175 -4 214 -30z m316 25 c2 -5 -14 -158 -37 -342 -41 -330 -42 -334
-66 -343 -35 -13 -110 -1 -110 18 0 32 80 656 86 665 6 11 121 12 127 2z m345
-198 c51 -110 97 -204 101 -208 4 -4 18 79 31 185 12 106 27 201 32 211 11 22
116 25 124 3 10 -25 -74 -669 -88 -678 -14 -9 -102 -8 -116 1 -4 3 -50 96
-101 206 -51 110 -96 203 -100 208 -4 4 -17 -84 -30 -195 -16 -141 -27 -206
-37 -214 -12 -9 -111 -8 -122 1 -5 4 78 667 84 677 3 5 33 8 67 6 l61 -3 94
-200z m757 186 c72 -32 122 -114 113 -186 -3 -30 -4 -30 -70 -33 l-68 -3 0 34
c0 85 -118 117 -183 49 -14 -15 -30 -47 -36 -72 -17 -79 -34 -257 -27 -284 10
-42 44 -66 92 -66 80 0 115 28 127 103 l6 37 -55 0 c-63 0 -70 8 -60 75 l7 45
124 0 c68 0 126 -3 128 -7 2 -5 -2 -51 -10 -103 -22 -144 -67 -213 -168 -256
-52 -21 -159 -21 -210 0 -95 40 -131 111 -121 239 10 133 32 261 52 302 25 53
86 111 137 129 61 21 173 20 222 -3z"/>
<path d="M1775 2658 c-5 -16 -25 -175 -25 -200 0 -16 9 -18 78 -18 106 1 152
13 185 50 20 22 27 41 27 71 0 53 -14 78 -55 95 -44 18 -204 19 -210 2z"/>
<path d="M4950 2540 l0 -90 120 0 c66 0 120 2 120 5 0 18 -55 134 -73 153 -18
19 -31 22 -94 22 l-73 0 0 -90z"/>
<path d="M3399 1323 l-46 -4 -9 -89 -9 -90 82 0 c72 0 85 3 111 25 47 40 50
120 5 143 -25 13 -80 19 -134 15z"/>
<path d="M3927 1313 c-3 -5 -8 -45 -12 -90 l-7 -83 81 0 c75 0 83 2 113 29 27
24 33 36 33 71 0 63 -27 80 -126 80 -43 0 -80 -3 -82 -7z"/>
</g>
</svg>
